<?xml version="1.0" encoding="UTF-8"?><svg xmlns="http://www.w3.org/2000/svg" xmlns:xlink="http://www.w3.org/1999/xlink" contentScriptType="text/ecmascript" width="375pt" zoomAndPan="magnify" contentStyleType="text/css" viewBox="0 0 375 89.999999" height="89.999999pt" preserveAspectRatio="xMidYMid meet" version="1.2"><defs><g/><clipPath xml:id="clip1" id="clip1"><path d="M 3.230469 18 L 24 18 L 24 40 L 3.230469 40 Z M 3.230469 18 "/></clipPath><clipPath xml:id="clip2" id="clip2"><path d="M 33 17 L 53.792969 17 L 53.792969 40 L 33 40 Z M 33 17 "/></clipPath><clipPath xml:id="clip3" id="clip3"><path d="M 3.230469 17 L 24 17 L 24 40 L 3.230469 40 Z M 3.230469 17 "/></clipPath><clipPath xml:id="clip4" id="clip4"><path d="M 46 9.261719 L 48 9.261719 L 48 11 L 46 11 Z M 46 9.261719 "/></clipPath><clipPath xml:id="clip5" id="clip5"><path d="M 9 46 L 11 46 L 11 47.972656 L 9 47.972656 Z M 9 46 "/></clipPath></defs><g xml:id="surface1" id="surface1"><g style="fill:rgb(1.179504%,59.609985%,61.959839%);fill-opacity:1;"><g transform="translate(58.900987, 42.885853)"><path style="stroke:none;" d="M 15.097656 -27.171875 L 0.582031 -27.171875 L 0.582031 -26.976562 C 2.171875 -26.78125 3.53125 -26.355469 3.53125 -24.957031 L 3.53125 -2.210938 C 3.53125 -0.816406 2.171875 -0.386719 0.582031 -0.195312 L 0.582031 0 L 11.800781 0 L 11.800781 -0.195312 C 10.207031 -0.386719 8.851562 -0.816406 8.851562 -2.210938 L 8.851562 -9.703125 L 13.3125 -9.703125 C 21 -9.703125 26.007812 -13.3125 26.007812 -19.214844 C 26.007812 -24.648438 22.007812 -27.171875 15.097656 -27.171875 Z M 14.789062 -10.324219 C 12.847656 -10.324219 10.828125 -10.675781 8.851562 -11.257812 L 8.851562 -26.550781 L 12.964844 -26.550781 C 19.5625 -26.550781 20.765625 -21.851562 20.765625 -17.390625 C 20.765625 -11.488281 18.785156 -10.324219 14.789062 -10.324219 Z M 14.789062 -10.324219 "/></g></g><g style="fill:rgb(1.179504%,59.609985%,61.959839%);fill-opacity:1;"><g transform="translate(86.061728, 42.885853)"><path style="stroke:none;" d="M 13.664062 -16.226562 C 9.585938 -17.15625 6.09375 -18.359375 6.09375 -22.433594 C 6.09375 -24.609375 7.0625 -27.132812 10.75 -27.132812 C 15.019531 -27.132812 19.367188 -23.832031 18.671875 -18.515625 L 22.359375 -24.183594 C 20.300781 -26.160156 17.078125 -27.714844 12.574219 -27.714844 C 6.328125 -27.714844 2.25 -24.765625 2.25 -19.988281 C 2.25 -16.652344 4.308594 -12.730469 11.839844 -10.984375 C 16.457031 -9.898438 19.058594 -8.925781 19.058594 -5.472656 C 19.058594 -3.414062 18.125 -0.078125 13.585938 -0.078125 C 9.199219 -0.078125 4.617188 -3.414062 5.125 -8.773438 L 1.550781 -3.105469 C 3.648438 -1.085938 7.335938 0.542969 12.03125 0.542969 C 18.863281 0.542969 22.824219 -3.105469 22.824219 -7.839844 C 22.824219 -10.714844 21.308594 -14.476562 13.664062 -16.226562 Z M 13.664062 -16.226562 "/></g></g><g style="fill:rgb(1.179504%,59.609985%,61.959839%);fill-opacity:1;"><g transform="translate(110.428794, 42.885853)"><path style="stroke:none;" d="M 24.609375 -8.269531 C 21.425781 -3.066406 18.980469 -0.621094 13.972656 -0.621094 L 8.851562 -0.621094 L 8.851562 -13.273438 L 12.109375 -13.273438 C 16.921875 -13.273438 18.746094 -12.226562 19.679688 -8.695312 L 19.679688 -18.515625 C 18.746094 -14.945312 16.921875 -13.894531 12.109375 -13.894531 L 8.851562 -13.894531 L 8.851562 -26.550781 L 13.742188 -26.550781 C 18.746094 -26.550781 20.261719 -24.609375 23.210938 -20.261719 L 23.367188 -20.339844 L 21.929688 -27.171875 L 0.582031 -27.171875 L 0.582031 -26.976562 C 2.171875 -26.78125 3.53125 -26.355469 3.53125 -24.957031 L 3.53125 -2.988281 C 3.53125 -1.589844 2.171875 -0.777344 0.582031 -0.195312 L 0.582031 0 L 21.152344 0 L 22.472656 0.855469 L 22.707031 0 L 24.765625 -8.191406 Z M 24.609375 -8.269531 "/></g></g><g style="fill:rgb(1.179504%,59.609985%,61.959839%);fill-opacity:1;"><g transform="translate(135.765873, 42.885853)"><path style="stroke:none;" d="M 14.789062 0.542969 C 20.765625 0.542969 25.230469 -3.261719 25.230469 -10.363281 L 25.230469 -21.773438 C 25.230469 -26.394531 26.589844 -26.820312 28.179688 -27.015625 L 28.179688 -27.210938 L 21.078125 -27.210938 L 21.078125 -27.015625 C 23.054688 -26.820312 24.414062 -25.617188 24.414062 -21 L 24.414062 -9.898438 C 24.414062 -3.414062 19.757812 -0.855469 16.148438 -0.855469 C 13.160156 -0.855469 8.851562 -2.601562 8.851562 -9.820312 L 8.851562 -24.957031 C 8.851562 -26.355469 10.207031 -26.78125 11.800781 -26.976562 L 11.800781 -27.171875 L 0.582031 -27.171875 L 0.582031 -26.976562 C 2.171875 -26.78125 3.53125 -26.355469 3.53125 -24.957031 L 3.53125 -10.285156 C 3.53125 -1.359375 10.558594 0.542969 14.789062 0.542969 Z M 14.789062 0.542969 "/></g></g><g style="fill:rgb(1.179504%,59.609985%,61.959839%);fill-opacity:1;"><g transform="translate(164.517443, 42.885853)"><path style="stroke:none;" d="M 13.003906 -27.171875 L 0.582031 -27.171875 L 0.582031 -26.976562 C 2.171875 -26.78125 3.53125 -26.355469 3.53125 -24.957031 L 3.53125 -2.988281 C 3.53125 -1.589844 2.171875 -0.777344 0.582031 -0.195312 L 0.582031 0 L 12.226562 0 C 21.503906 0 28.375 -5.085938 28.375 -14.285156 C 28.375 -22.433594 23.054688 -27.171875 13.003906 -27.171875 Z M 14.207031 -0.699219 C 12.148438 -0.699219 10.363281 -1.125 8.851562 -1.785156 L 8.851562 -26.550781 L 11.449219 -26.550781 C 19.292969 -26.550781 22.746094 -20.6875 22.746094 -12.109375 C 22.746094 -3.339844 19.328125 -0.699219 14.207031 -0.699219 Z M 14.207031 -0.699219 "/></g></g><g style="fill:rgb(1.179504%,59.609985%,61.959839%);fill-opacity:1;"><g transform="translate(194.433051, 42.885853)"><path style="stroke:none;" d="M 16.730469 -27.714844 C 8.269531 -27.714844 1.746094 -22.320312 1.746094 -13.585938 C 1.746094 -4.851562 8.269531 0.542969 16.730469 0.542969 C 25.152344 0.542969 31.671875 -4.851562 31.671875 -13.585938 C 31.671875 -22.320312 25.152344 -27.714844 16.730469 -27.714844 Z M 18.359375 -0.15625 C 11.917969 -0.15625 7.375 -8.421875 7.375 -16.1875 C 7.375 -22.628906 10.402344 -27.015625 15.058594 -27.015625 C 21.503906 -27.015625 26.042969 -18.746094 26.042969 -11.023438 C 26.042969 -4.582031 23.015625 -0.15625 18.359375 -0.15625 Z M 18.359375 -0.15625 "/></g></g><g style="fill:rgb(1.179504%,59.609985%,61.959839%);fill-opacity:1;"><g transform="translate(227.840747, 42.885853)"><path style="stroke:none;" d="M 21.308594 -27.171875 L 21.308594 -26.976562 C 22.902344 -26.78125 24.257812 -25.578125 24.257812 -20.300781 L 24.257812 -7.957031 L 9.355469 -25.539062 C 8.8125 -26.355469 8.421875 -26.78125 8.191406 -27.171875 L 0.386719 -27.171875 C 1.628906 -26.550781 2.601562 -25.65625 3.921875 -24.105469 L 3.921875 -6.09375 C 3.921875 -0.816406 2.5625 -0.386719 0.96875 -0.195312 L 0.96875 0 L 7.648438 0 L 7.648438 -0.195312 C 6.054688 -0.386719 4.695312 -1.589844 4.695312 -6.871094 L 4.695312 -23.171875 L 25.113281 1.085938 L 25.191406 1.007812 C 25.113281 -0.386719 24.996094 -2.40625 24.996094 -6.441406 L 24.996094 -21.078125 C 24.996094 -26.355469 26.355469 -26.78125 27.945312 -26.976562 L 27.945312 -27.171875 Z M 21.308594 -27.171875 "/></g></g><g style="fill:rgb(1.179504%,59.609985%,61.959839%);fill-opacity:1;"><g transform="translate(256.359506, 42.885853)"><path style="stroke:none;" d="M 24.609375 -8.269531 C 21.425781 -3.066406 18.980469 -0.621094 13.972656 -0.621094 L 8.851562 -0.621094 L 8.851562 -13.273438 L 12.109375 -13.273438 C 16.921875 -13.273438 18.746094 -12.226562 19.679688 -8.695312 L 19.679688 -18.515625 C 18.746094 -14.945312 16.921875 -13.894531 12.109375 -13.894531 L 8.851562 -13.894531 L 8.851562 -26.550781 L 13.742188 -26.550781 C 18.746094 -26.550781 20.261719 -24.609375 23.210938 -20.261719 L 23.367188 -20.339844 L 21.929688 -27.171875 L 0.582031 -27.171875 L 0.582031 -26.976562 C 2.171875 -26.78125 3.53125 -26.355469 3.53125 -24.957031 L 3.53125 -2.988281 C 3.53125 -1.589844 2.171875 -0.777344 0.582031 -0.195312 L 0.582031 0 L 21.152344 0 L 22.472656 0.855469 L 22.707031 0 L 24.765625 -8.191406 Z M 24.609375 -8.269531 "/></g></g><g style="fill:rgb(1.179504%,59.609985%,61.959839%);fill-opacity:1;"><g transform="translate(281.696585, 42.885853)"><path style="stroke:none;" d="M 23.289062 -5.125 L 18.59375 -11.566406 C 23.289062 -12.847656 26.160156 -15.953125 26.160156 -19.835938 C 26.160156 -24.878906 22.164062 -27.171875 15.214844 -27.171875 L 0.582031 -27.171875 L 0.582031 -26.976562 C 2.171875 -26.78125 3.53125 -26.355469 3.53125 -24.957031 L 3.53125 -2.210938 C 3.53125 -0.816406 2.171875 -0.386719 0.582031 -0.195312 L 0.582031 0 L 11.800781 0 L 11.800781 -0.195312 C 10.207031 -0.386719 8.851562 -0.816406 8.851562 -2.210938 L 8.851562 -10.945312 L 13.390625 -10.945312 L 20.6875 -0.660156 L 20.6875 0 L 29.074219 0 L 29.074219 -0.117188 C 27.054688 -1.125 25.578125 -1.980469 23.289062 -5.125 Z M 8.851562 -26.472656 L 13.121094 -26.472656 C 19.757812 -26.472656 20.921875 -22.359375 20.921875 -18.242188 C 20.921875 -12.847656 18.941406 -11.566406 15.019531 -11.566406 C 13.003906 -11.566406 10.867188 -11.878906 8.851562 -12.460938 Z M 8.851562 -26.472656 "/></g></g><g style="fill:rgb(1.179504%,59.609985%,61.959839%);fill-opacity:1;"><g transform="translate(310.370559, 42.885853)"><path style="stroke:none;" d="M 13.003906 -27.171875 L 0.582031 -27.171875 L 0.582031 -26.976562 C 2.171875 -26.78125 3.53125 -26.355469 3.53125 -24.957031 L 3.53125 -2.988281 C 3.53125 -1.589844 2.171875 -0.777344 0.582031 -0.195312 L 0.582031 0 L 12.226562 0 C 21.503906 0 28.375 -5.085938 28.375 -14.285156 C 28.375 -22.433594 23.054688 -27.171875 13.003906 -27.171875 Z M 14.207031 -0.699219 C 12.148438 -0.699219 10.363281 -1.125 8.851562 -1.785156 L 8.851562 -26.550781 L 11.449219 -26.550781 C 19.292969 -26.550781 22.746094 -20.6875 22.746094 -12.109375 C 22.746094 -3.339844 19.328125 -0.699219 14.207031 -0.699219 Z M 14.207031 -0.699219 "/></g></g><g style="fill:rgb(1.179504%,59.609985%,61.959839%);fill-opacity:1;"><g transform="translate(340.286167, 42.885853)"><path style="stroke:none;" d="M 13.664062 -16.226562 C 9.585938 -17.15625 6.09375 -18.359375 6.09375 -22.433594 C 6.09375 -24.609375 7.0625 -27.132812 10.75 -27.132812 C 15.019531 -27.132812 19.367188 -23.832031 18.671875 -18.515625 L 22.359375 -24.183594 C 20.300781 -26.160156 17.078125 -27.714844 12.574219 -27.714844 C 6.328125 -27.714844 2.25 -24.765625 2.25 -19.988281 C 2.25 -16.652344 4.308594 -12.730469 11.839844 -10.984375 C 16.457031 -9.898438 19.058594 -8.925781 19.058594 -5.472656 C 19.058594 -3.414062 18.125 -0.078125 13.585938 -0.078125 C 9.199219 -0.078125 4.617188 -3.414062 5.125 -8.773438 L 1.550781 -3.105469 C 3.648438 -1.085938 7.335938 0.542969 12.03125 0.542969 C 18.863281 0.542969 22.824219 -3.105469 22.824219 -7.839844 C 22.824219 -10.714844 21.308594 -14.476562 13.664062 -16.226562 Z M 13.664062 -16.226562 "/></g></g><path style=" stroke:none;fill-rule:nonzero;fill:rgb(32.939148%,32.939148%,32.939148%);fill-opacity:1;" d="M 28.464844 56.933594 C 20.867188 56.933594 13.710938 53.976562 8.339844 48.59375 C 2.957031 43.222656 0 36.066406 0 28.464844 C 0 20.867188 2.957031 13.710938 8.339844 8.339844 C 13.710938 2.957031 20.867188 0 28.464844 0 C 36.066406 0 43.222656 2.957031 48.59375 8.339844 C 53.976562 13.722656 56.933594 20.867188 56.933594 28.464844 C 56.933594 36.066406 53.976562 43.222656 48.59375 48.59375 C 43.222656 53.976562 36.066406 56.933594 28.464844 56.933594 Z M 28.464844 1.707031 C 21.320312 1.707031 14.597656 4.492188 9.546875 9.546875 C 4.492188 14.597656 1.707031 21.320312 1.707031 28.464844 C 1.707031 35.613281 4.492188 42.335938 9.546875 47.386719 C 14.597656 52.4375 21.320312 55.226562 28.464844 55.226562 C 35.613281 55.226562 42.335938 52.4375 47.386719 47.386719 C 52.4375 42.335938 55.226562 35.613281 55.226562 28.464844 C 55.226562 21.320312 52.4375 14.597656 47.386719 9.546875 C 42.335938 4.492188 35.613281 1.707031 28.464844 1.707031 Z M 28.464844 1.707031 "/><path style=" stroke:none;fill-rule:nonzero;fill:rgb(100%,35.688782%,0%);fill-opacity:1;" d="M 52.320312 27.832031 L 43.261719 18.667969 C 43.015625 18.417969 42.683594 18.28125 42.335938 18.28125 L 34.925781 18.28125 C 34.398438 18.28125 33.917969 18.601562 33.714844 19.097656 C 33.511719 19.59375 33.625 20.164062 34 20.542969 L 42.132812 28.769531 L 34 36.996094 C 33.625 37.375 33.511719 37.941406 33.714844 38.4375 C 33.917969 38.933594 34.398438 39.257812 34.925781 39.257812 L 42.335938 39.257812 C 42.683594 39.257812 43.015625 39.117188 43.261719 38.867188 L 52.320312 29.703125 C 52.566406 29.457031 52.703125 29.121094 52.703125 28.769531 C 52.703125 28.417969 52.566406 28.078125 52.320312 27.832031 Z M 52.320312 27.832031 "/><path style=" stroke:none;fill-rule:nonzero;fill:rgb(100%,59.21936%,0%);fill-opacity:1;" d="M 45.515625 29.703125 C 45.761719 29.457031 45.898438 29.121094 45.898438 28.769531 C 45.898438 28.417969 45.761719 28.078125 45.515625 27.832031 L 36.457031 18.667969 C 36.210938 18.417969 35.878906 18.28125 35.53125 18.28125 L 34.925781 18.28125 C 34.398438 18.28125 33.917969 18.601562 33.714844 19.097656 C 33.511719 19.59375 33.625 20.164062 34 20.542969 L 42.132812 28.769531 L 34 36.996094 C 33.625 37.375 33.511719 37.941406 33.714844 38.4375 C 33.917969 38.933594 34.398438 39.257812 34.925781 39.257812 L 35.53125 39.257812 C 35.878906 39.257812 36.210938 39.117188 36.457031 38.867188 Z M 45.515625 29.703125 "/><g clip-rule="nonzero" clip-path="url(#clip1)"><path style=" stroke:none;fill-rule:nonzero;fill:rgb(6.669617%,66.668701%,65.098572%);fill-opacity:1;" d="M 22.910156 19.097656 C 22.707031 18.601562 22.230469 18.28125 21.699219 18.28125 L 14.292969 18.28125 C 13.945312 18.28125 13.609375 18.417969 13.363281 18.667969 L 4.304688 27.832031 C 4.0625 28.078125 3.921875 28.417969 3.921875 28.769531 C 3.921875 29.121094 4.0625 29.457031 4.304688 29.703125 L 13.363281 38.867188 C 13.609375 39.117188 13.945312 39.257812 14.292969 39.257812 L 21.699219 39.257812 C 22.230469 39.257812 22.707031 38.933594 22.910156 38.4375 C 23.113281 37.941406 23 37.375 22.625 36.996094 L 14.492188 28.769531 L 22.625 20.542969 C 23 20.164062 23.113281 19.59375 22.910156 19.097656 Z M 22.910156 19.097656 "/></g><path style=" stroke:none;fill-rule:nonzero;fill:rgb(12.548828%,82.749939%,59.21936%);fill-opacity:1;" d="M 22.910156 38.4375 C 23.113281 37.941406 23 37.375 22.625 36.996094 L 14.492188 28.769531 L 22.625 20.542969 C 23 20.164062 23.113281 19.59375 22.910156 19.097656 C 22.707031 18.601562 22.230469 18.28125 21.699219 18.28125 L 21.09375 18.28125 C 20.746094 18.28125 20.414062 18.417969 20.167969 18.667969 L 11.109375 27.832031 C 10.863281 28.078125 10.726562 28.417969 10.726562 28.769531 C 10.726562 29.121094 10.863281 29.457031 11.109375 29.703125 L 20.167969 38.867188 C 20.414062 39.117188 20.746094 39.257812 21.09375 39.257812 L 21.699219 39.257812 C 22.230469 39.257812 22.707031 38.933594 22.910156 38.4375 Z M 22.910156 38.4375 "/><g clip-rule="nonzero" clip-path="url(#clip2)"><path style="fill:none;stroke-width:3;stroke-linecap:round;stroke-linejoin:round;stroke:rgb(19.999695%,21.179199%,22.749329%);stroke-opacity:1;stroke-miterlimit:10;" d="M 129.877826 65.12022 L 106.578135 41.818386 C 105.945155 41.182701 105.091134 40.835061 104.196924 40.835061 L 85.137193 40.835061 C 83.780808 40.835061 82.555037 41.649532 82.032577 42.91097 C 81.510118 44.172408 81.801489 45.622565 82.755983 46.586025 L 103.674464 67.504039 L 82.755983 88.422054 C 81.791442 89.385514 81.510118 90.825738 82.032577 92.087176 C 82.555037 93.348614 83.780808 94.173018 85.137193 94.173018 L 104.196924 94.173018 C 105.091134 94.173018 105.945155 93.815445 106.578135 93.17976 L 129.877826 69.877926 C 130.510806 69.252174 130.862462 68.397972 130.862462 67.504039 C 130.862462 66.610107 130.510806 65.745973 129.877826 65.12022 Z M 129.877826 65.12022 " transform="matrix(0.388786,0,0,0.393276,2.313914,2.221782)"/></g><path style="fill:none;stroke-width:3;stroke-linecap:round;stroke-linejoin:round;stroke:rgb(19.999695%,21.179199%,22.749329%);stroke-opacity:1;stroke-miterlimit:10;" d="M 108.667973 62.498019 L 87.749492 83.416033 " transform="matrix(0.388786,0,0,0.393276,2.313914,2.221782)"/><g clip-rule="nonzero" clip-path="url(#clip3)"><path style="fill:none;stroke-width:3;stroke-linecap:round;stroke-linejoin:round;stroke:rgb(19.999695%,21.179199%,22.749329%);stroke-opacity:1;stroke-miterlimit:10;" d="M 52.975782 42.91097 C 52.453322 41.649532 51.227551 40.835061 49.861118 40.835061 L 30.811435 40.835061 C 29.917225 40.835061 29.053157 41.182701 28.420177 41.818386 L 5.120486 65.12022 C 4.497553 65.745973 4.13585 66.610107 4.13585 67.504039 C 4.13585 68.397972 4.497553 69.252174 5.120486 69.877926 L 28.420177 93.17976 C 29.053157 93.815445 29.917225 94.173018 30.811435 94.173018 L 49.861118 94.173018 C 51.227551 94.173018 52.453322 93.348614 52.975782 92.087176 C 53.498242 90.825738 53.20687 89.385514 52.242329 88.422054 L 31.323847 67.504039 L 52.242329 46.586025 C 53.20687 45.622565 53.498242 44.172408 52.975782 42.91097 Z M 52.975782 42.91097 " transform="matrix(0.388786,0,0,0.393276,2.313914,2.221782)"/></g><path style="fill:none;stroke-width:3;stroke-linecap:round;stroke-linejoin:round;stroke:rgb(19.999695%,21.179199%,22.749329%);stroke-opacity:1;stroke-miterlimit:10;" d="M 26.330339 72.500127 L 47.24882 51.582113 " transform="matrix(0.388786,0,0,0.393276,2.313914,2.221782)"/><path style="fill:none;stroke-width:3;stroke-linecap:round;stroke-linejoin:round;stroke:rgb(19.999695%,21.179199%,22.749329%);stroke-opacity:1;stroke-miterlimit:10;" d="M 57.044939 77.963047 L 77.953373 57.045032 " transform="matrix(0.388786,0,0,0.393276,2.313914,2.221782)"/><path style="fill:none;stroke-width:3;stroke-linecap:round;stroke-linejoin:round;stroke:rgb(19.999695%,21.179199%,22.749329%);stroke-opacity:1;stroke-miterlimit:10;" d="M 101.403774 33.604142 L 103.784985 31.21039 " transform="matrix(0.388786,0,0,0.393276,2.313914,2.221782)"/><path style="fill:none;stroke-width:3;stroke-linecap:round;stroke-linejoin:round;stroke:rgb(19.999695%,21.179199%,22.749329%);stroke-opacity:1;stroke-miterlimit:10;" d="M 108.185703 26.810257 L 108.436885 26.561943 " transform="matrix(0.388786,0,0,0.393276,2.313914,2.221782)"/><path style="fill:none;stroke-width:3;stroke-linecap:round;stroke-linejoin:round;stroke:rgb(19.999695%,21.179199%,22.749329%);stroke-opacity:1;stroke-miterlimit:10;" d="M 111.682164 23.323922 L 111.923299 23.075607 " transform="matrix(0.388786,0,0,0.393276,2.313914,2.221782)"/><g clip-rule="nonzero" clip-path="url(#clip4)"><path style="fill:none;stroke-width:3;stroke-linecap:round;stroke-linejoin:round;stroke:rgb(19.999695%,21.179199%,22.749329%);stroke-opacity:1;stroke-miterlimit:10;" d="M 115.168577 19.837586 L 115.41976 19.579339 " transform="matrix(0.388786,0,0,0.393276,2.313914,2.221782)"/></g><path style="fill:none;stroke-width:3;stroke-linecap:round;stroke-linejoin:round;stroke:rgb(19.999695%,21.179199%,22.749329%);stroke-opacity:1;stroke-miterlimit:10;" d="M 33.594538 101.403936 L 31.213327 103.787756 " transform="matrix(0.388786,0,0,0.393276,2.313914,2.221782)"/><path style="fill:none;stroke-width:3;stroke-linecap:round;stroke-linejoin:round;stroke:rgb(19.999695%,21.179199%,22.749329%);stroke-opacity:1;stroke-miterlimit:10;" d="M 26.812609 108.187889 L 26.561427 108.436203 " transform="matrix(0.388786,0,0,0.393276,2.313914,2.221782)"/><path style="fill:none;stroke-width:3;stroke-linecap:round;stroke-linejoin:round;stroke:rgb(19.999695%,21.179199%,22.749329%);stroke-opacity:1;stroke-miterlimit:10;" d="M 23.316148 111.684157 L 23.075013 111.932472 " transform="matrix(0.388786,0,0,0.393276,2.313914,2.221782)"/><g clip-rule="nonzero" clip-path="url(#clip5)"><path style="fill:none;stroke-width:3;stroke-linecap:round;stroke-linejoin:round;stroke:rgb(19.999695%,21.179199%,22.749329%);stroke-opacity:1;stroke-miterlimit:10;" d="M 19.829735 115.170493 L 19.578552 115.418808 " transform="matrix(0.388786,0,0,0.393276,2.313914,2.221782)"/></g></g></svg>